<svg xmlns="http://www.w3.org/2000/svg" xmlns:xlink="http://www.w3.org/1999/xlink" contentStyleType="text/css" data-diagram-type="ACTIVITY" height="1420px" preserveAspectRatio="none" style="width:1448px;height:1420px;background:#FFFFFF;" version="1.1" viewBox="0 0 1448 1420" width="1448px" zoomAndPan="magnify"><title>Activity &#8212; Generate Shortlist</title><defs/><g><text fill="#000000" font-family="sans-serif" font-size="14" font-weight="bold" lengthAdjust="spacing" textLength="194.1543" x="625.5181" y="34.5332">Activity &#8212; Generate Shortlist</text><rect fill="none" height="22.6406" style="stroke:none;stroke-width:1;" width="1415.1904" x="15" y="51.0645"/><ellipse cx="64.6768" cy="88.7051" fill="#222222" rx="10" ry="10" style="stroke:#222222;stroke-width:1;"/><rect fill="#F1F1F1" height="35.0938" rx="12.5" ry="12.5" style="stroke:#444444;stroke-width:0.5;" width="87.3535" x="21" y="118.7051"/><text fill="#000000" font-family="sans-serif" font-size="12" lengthAdjust="spacing" textLength="67.3535" x="31" y="141.1621">Click Search</text><line style="stroke:#000000;stroke-width:1.5;" x1="15" x2="15" y1="51.0645" y2="1408.7129"/><rect fill="#F1F1F1" height="35.0938" rx="12.5" ry="12.5" style="stroke:#444444;stroke-width:0.5;" width="132.7344" x="137.3643" y="173.7988"/><text fill="#000000" font-family="sans-serif" font-size="12" lengthAdjust="spacing" textLength="112.7344" x="147.3643" y="196.2559">Build SearchRequest</text><rect fill="#F1F1F1" height="35.0938" rx="12.5" ry="12.5" style="stroke:#444444;stroke-width:0.5;" width="170.7559" x="118.3535" y="1265.6191"/><text fill="#000000" font-family="sans-serif" font-size="12" lengthAdjust="spacing" textLength="150.7559" x="128.3535" y="1288.0762">Render ranked results panel</text><ellipse cx="203.7314" cy="1331.7129" fill="none" rx="11" ry="11" style="stroke:#222222;stroke-width:1;"/><ellipse cx="203.7314" cy="1331.7129" fill="#222222" rx="6" ry="6" style="stroke:#222222;stroke-width:1;"/><line style="stroke:#000000;stroke-width:1.5;" x1="112.3535" x2="112.3535" y1="51.0645" y2="1408.7129"/><rect fill="#F1F1F1" height="35.0938" rx="12.5" ry="12.5" style="stroke:#444444;stroke-width:0.5;" width="164.0527" x="299.1094" y="228.8926"/><text fill="#000000" font-family="sans-serif" font-size="12" lengthAdjust="spacing" textLength="144.0527" x="309.1094" y="251.3496">GuiSearchService.search()</text><line style="stroke:#000000;stroke-width:1.5;" x1="293.1094" x2="293.1094" y1="51.0645" y2="1408.7129"/><rect fill="#F1F1F1" height="35.0938" rx="12.5" ry="12.5" style="stroke:#444444;stroke-width:0.5;" width="199.4375" x="473.1621" y="283.9863"/><text fill="#000000" font-family="sans-serif" font-size="12" lengthAdjust="spacing" textLength="179.4375" x="483.1621" y="306.4434">SearchLogic.updatePreferences()</text><rect fill="#F1F1F1" height="35.0938" rx="12.5" ry="12.5" style="stroke:#444444;stroke-width:0.5;" width="188.7559" x="478.5029" y="339.0801"/><text fill="#000000" font-family="sans-serif" font-size="12" lengthAdjust="spacing" textLength="168.7559" x="488.5029" y="361.5371">SearchLogic.generateShortlist()</text><rect fill="#F1F1F1" height="35.0938" rx="12.5" ry="12.5" style="stroke:#444444;stroke-width:0.5;" width="138.7109" x="503.5254" y="1210.5254"/><text fill="#000000" font-family="sans-serif" font-size="12" lengthAdjust="spacing" textLength="118.7109" x="513.5254" y="1232.9824">Truncate to resultLimit</text><line style="stroke:#000000;stroke-width:1.5;" x1="467.1621" x2="467.1621" y1="51.0645" y2="1408.7129"/><path d="M832.0059,384.1738 L832.0059,409.7012 L812.0059,413.7012 L832.0059,417.7012 L832.0059,443.2285 A0,0 0 0 0 832.0059,443.2285 L1067.6201,443.2285 A0,0 0 0 0 1067.6201,443.2285 L1067.6201,394.1738 L1057.6201,384.1738 L832.0059,384.1738 A0,0 0 0 0 832.0059,384.1738" fill="#FFFFEE" style="stroke:#999999;stroke-width:0.5;"/><path d="M1057.6201,384.1738 L1057.6201,394.1738 L1067.6201,394.1738 L1057.6201,384.1738" fill="#FFFFEE" style="stroke:#999999;stroke-width:0.5;"/><text fill="#000000" font-family="sans-serif" font-size="13" lengthAdjust="spacing" textLength="214.6143" x="838.0059" y="402.6689">Cross-dataset validation runs once at</text><text fill="#000000" font-family="sans-serif" font-size="13" lengthAdjust="spacing" textLength="213.167" x="838.0059" y="419.0205">startup inside ApplicationFactory, not</text><text fill="#000000" font-family="sans-serif" font-size="13" lengthAdjust="spacing" textLength="69.3735" x="838.0059" y="435.3721">per request.</text><rect fill="#F1F1F1" height="35.0938" rx="12.5" ry="12.5" style="stroke:#444444;stroke-width:0.5;" width="129.4063" x="682.5996" y="396.1543"/><text fill="#000000" font-family="sans-serif" font-size="12" lengthAdjust="spacing" textLength="109.4063" x="692.5996" y="418.6113">Load listings dataset</text><line style="stroke:#000000;stroke-width:1.5;" x1="676.5996" x2="676.5996" y1="51.0645" y2="1408.7129"/><rect fill="#F1F1F1" height="35.0938" rx="12.5" ry="12.5" style="stroke:#444444;stroke-width:0.5;" width="154.7012" x="1165.3044" y="463.2285"/><text fill="#000000" font-family="sans-serif" font-size="12" lengthAdjust="spacing" textLength="134.7012" x="1175.3044" y="485.6855">ListingFilter.filterByRent()</text><rect fill="#F1F1F1" height="35.0938" rx="12.5" ry="12.5" style="stroke:#444444;stroke-width:0.5;" width="163.3672" x="1160.9714" y="518.3223"/><text fill="#000000" font-family="sans-serif" font-size="12" lengthAdjust="spacing" textLength="143.3672" x="1170.9714" y="540.7793">ListingFilter.filterByAircon()</text><polygon fill="#F1F1F1" points="1116.4021,878.1348,1368.908,878.1348,1380.908,1034.3301,1368.908,1190.5254,1116.4021,1190.5254,1104.4021,1034.3301,1116.4021,878.1348" style="stroke:#444444;stroke-width:0.5;"/><text fill="#000000" font-family="sans-serif" font-size="11" lengthAdjust="spacing" textLength="133.2837" x="1116.4021" y="889.5537">Walk dominant?) then [yes]</text><text fill="#000000" font-family="sans-serif" font-size="11" lengthAdjust="spacing" textLength="74.5776" x="1153.0759" y="903.3896">:Discard listing;</text><text fill="#000000" font-family="sans-serif" font-size="11" lengthAdjust="spacing" textLength="41.583" x="1146.9636" y="917.2256">else [no]</text><text fill="#000000" font-family="sans-serif" font-size="11" lengthAdjust="spacing" textLength="62.9814" x="1153.0759" y="931.0615">:Keep listing;</text><text fill="#000000" font-family="sans-serif" font-size="11" lengthAdjust="spacing" textLength="23.853" x="1146.9636" y="944.8975">endif</text><text fill="#000000" font-family="sans-serif" font-size="11" lengthAdjust="spacing" textLength="41.583" x="1140.8513" y="958.7334">else [no]</text><text fill="#000000" font-family="sans-serif" font-size="11" lengthAdjust="spacing" textLength="62.9814" x="1146.9636" y="972.5693">:Keep listing;</text><text fill="#000000" font-family="sans-serif" font-size="11" lengthAdjust="spacing" textLength="23.853" x="1140.8513" y="986.4053">endif</text><text fill="#000000" font-family="sans-serif" font-size="11" lengthAdjust="spacing" textLength="23.853" x="1134.739" y="1000.2412">endif</text><text fill="#000000" font-family="sans-serif" font-size="11" lengthAdjust="spacing" textLength="23.853" x="1128.6267" y="1014.0771">endif</text><text fill="#000000" font-family="sans-serif" font-size="11" lengthAdjust="spacing" textLength="23.853" x="1122.5144" y="1027.9131">endif</text><text fill="#000000" font-family="sans-serif" font-size="11" lengthAdjust="spacing" textLength="26.2969" x="1116.4021" y="1043.749">Logic</text><line style="stroke:#000000;stroke-width:0.5;" x1="1116.4021" x2="1142.699" y1="1032.3301" y2="1032.3301"/><line style="stroke:#000000;stroke-width:0.5;" x1="1116.4021" x2="1142.699" y1="1046.166" y2="1046.166"/><line style="stroke:#000000;stroke-width:0.5;" x1="1116.4021" x2="1116.4021" y1="1032.3301" y2="1046.166"/><line style="stroke:#000000;stroke-width:0.5;" x1="1142.699" x2="1142.699" y1="1032.3301" y2="1046.166"/><text fill="#000000" font-family="sans-serif" font-size="11" lengthAdjust="spacing" textLength="174.8398" x="1116.4021" y="1059.585">repeat while (More listings?) is [yes]</text><text fill="#000000" font-family="sans-serif" font-size="11" lengthAdjust="spacing" textLength="37.603" x="1116.4021" y="1073.4209">-&gt;  [no];</text><text fill="#000000" font-family="sans-serif" font-size="11" lengthAdjust="spacing" textLength="142.4414" x="1116.4021" y="1087.2568">if (Results empty?) then [yes]</text><text fill="#000000" font-family="sans-serif" font-size="11" lengthAdjust="spacing" textLength="186.479" x="1122.5144" y="1101.0928">note right: throws NoResultsException</text><text fill="#000000" font-family="sans-serif" font-size="11" lengthAdjust="spacing" textLength="20.7915" x="1122.5144" y="1114.9287">stop</text><text fill="#000000" font-family="sans-serif" font-size="11" lengthAdjust="spacing" textLength="41.583" x="1116.4021" y="1128.7646">else [no]</text><text fill="#000000" font-family="sans-serif" font-size="11" lengthAdjust="spacing" textLength="23.853" x="1116.4021" y="1142.6006">endif</text><text fill="#000000" font-family="sans-serif" font-size="11" lengthAdjust="spacing" textLength="36.6792" x="1116.4021" y="1158.4365">Service</text><line style="stroke:#000000;stroke-width:0.5;" x1="1116.4021" x2="1153.0813" y1="1147.0176" y2="1147.0176"/><line style="stroke:#000000;stroke-width:0.5;" x1="1116.4021" x2="1153.0813" y1="1160.8535" y2="1160.8535"/><line style="stroke:#000000;stroke-width:0.5;" x1="1116.4021" x2="1116.4021" y1="1147.0176" y2="1160.8535"/><line style="stroke:#000000;stroke-width:0.5;" x1="1153.0813" x2="1153.0813" y1="1147.0176" y2="1160.8535"/><text fill="#000000" font-family="sans-serif" font-size="11" lengthAdjust="spacing" textLength="252.5059" x="1116.4021" y="1174.2725">:ListingRanker.computeScore() for each kept listing;</text><text fill="#000000" font-family="sans-serif" font-size="11" lengthAdjust="spacing" textLength="144.2837" x="1116.4021" y="1188.1084">:ListingRanker.rank(sortMode</text><polygon fill="#F1F1F1" points="1099.6201,573.416,1385.6899,573.416,1397.6899,715.7754,1385.6899,858.1348,1099.6201,858.1348,1087.6201,715.7754,1099.6201,573.416" style="stroke:#444444;stroke-width:0.5;"/><text fill="#000000" font-family="sans-serif" font-size="11" lengthAdjust="spacing" textLength="144.3052" x="1099.6201" y="584.835">Listings remaining?) then [no]</text><text fill="#000000" font-family="sans-serif" font-size="11" lengthAdjust="spacing" textLength="186.479" x="1105.7324" y="598.6709">note right: throws NoResultsException</text><text fill="#000000" font-family="sans-serif" font-size="11" lengthAdjust="spacing" textLength="20.7915" x="1105.7324" y="612.5068">stop</text><text fill="#000000" font-family="sans-serif" font-size="11" lengthAdjust="spacing" textLength="46.4653" x="1099.6201" y="626.3428">else [yes]</text><text fill="#000000" font-family="sans-serif" font-size="11" lengthAdjust="spacing" textLength="23.853" x="1099.6201" y="640.1787">endif</text><text fill="#000000" font-family="sans-serif" font-size="11" lengthAdjust="spacing" textLength="26.2969" x="1099.6201" y="656.0146">Logic</text><line style="stroke:#000000;stroke-width:0.5;" x1="1099.6201" x2="1125.917" y1="644.5957" y2="644.5957"/><line style="stroke:#000000;stroke-width:0.5;" x1="1099.6201" x2="1125.917" y1="658.4316" y2="658.4316"/><line style="stroke:#000000;stroke-width:0.5;" x1="1099.6201" x2="1099.6201" y1="644.5957" y2="658.4316"/><line style="stroke:#000000;stroke-width:0.5;" x1="1125.917" x2="1125.917" y1="644.5957" y2="658.4316"/><text fill="#000000" font-family="sans-serif" font-size="11" lengthAdjust="spacing" textLength="31.1899" x="1099.6201" y="671.8506">repeat</text><text fill="#000000" font-family="sans-serif" font-size="11" lengthAdjust="spacing" textLength="36.6792" x="1099.6201" y="687.6865">Service</text><line style="stroke:#000000;stroke-width:0.5;" x1="1099.6201" x2="1136.2993" y1="676.2676" y2="676.2676"/><line style="stroke:#000000;stroke-width:0.5;" x1="1099.6201" x2="1136.2993" y1="690.1035" y2="690.1035"/><line style="stroke:#000000;stroke-width:0.5;" x1="1099.6201" x2="1099.6201" y1="676.2676" y2="690.1035"/><line style="stroke:#000000;stroke-width:0.5;" x1="1136.2993" x2="1136.2993" y1="676.2676" y2="690.1035"/><text fill="#000000" font-family="sans-serif" font-size="11" lengthAdjust="spacing" textLength="279.9575" x="1105.7324" y="703.5225">:CommuteEstimator.estimate() via TravelTimeRepository;</text><text fill="#000000" font-family="sans-serif" font-size="11" lengthAdjust="spacing" textLength="251.5713" x="1105.7324" y="717.3584">if (totalMinutes &gt; maxCommuteMinutes?) then [yes]</text><text fill="#000000" font-family="sans-serif" font-size="11" lengthAdjust="spacing" textLength="74.5776" x="1111.8447" y="731.1943">:Discard listing;</text><text fill="#000000" font-family="sans-serif" font-size="11" lengthAdjust="spacing" textLength="41.583" x="1105.7324" y="745.0303">else [no]</text><text fill="#000000" font-family="sans-serif" font-size="11" lengthAdjust="spacing" textLength="195.3145" x="1111.8447" y="758.8662">if (transfers &gt; maxTransfers?) then [yes]</text><text fill="#000000" font-family="sans-serif" font-size="11" lengthAdjust="spacing" textLength="74.5776" x="1117.957" y="772.7021">:Discard listing;</text><text fill="#000000" font-family="sans-serif" font-size="11" lengthAdjust="spacing" textLength="41.583" x="1111.8447" y="786.5381">else [no]</text><text fill="#000000" font-family="sans-serif" font-size="11" lengthAdjust="spacing" textLength="229.5498" x="1117.957" y="800.374">if (walkMinutes &gt; maxWalkMinutes?) then [yes]</text><text fill="#000000" font-family="sans-serif" font-size="11" lengthAdjust="spacing" textLength="74.5776" x="1124.0693" y="814.21">:Discard listing;</text><text fill="#000000" font-family="sans-serif" font-size="11" lengthAdjust="spacing" textLength="41.583" x="1117.957" y="828.0459">else [no]</text><text fill="#000000" font-family="sans-serif" font-size="11" lengthAdjust="spacing" textLength="217.0405" x="1124.0693" y="841.8818">if (excludeWalkDominantRoutes?) then [yes]</text><text fill="#000000" font-family="sans-serif" font-size="11" lengthAdjust="spacing" textLength="161.3906" x="1130.1816" y="855.7178">:RouteAnalyzer.isWalkDominant(</text><polygon fill="#F1F1F1" points="1242.655,1384.7129,1254.655,1396.7129,1242.655,1408.7129,1230.655,1396.7129,1242.655,1384.7129" style="stroke:#444444;stroke-width:0.5;"/><line style="stroke:#000000;stroke-width:1.5;" x1="1072.6201" x2="1072.6201" y1="51.0645" y2="1408.7129"/><line style="stroke:#000000;stroke-width:1.5;" x1="1428.6899" x2="1428.6899" y1="51.0645" y2="1408.7129"/><line style="stroke:#444444;stroke-width:1;" x1="64.6768" x2="64.6768" y1="98.7051" y2="118.7051"/><polygon fill="#444444" points="60.6768,108.7051,64.6768,118.7051,68.6768,108.7051,64.6768,112.7051" style="stroke:#444444;stroke-width:1;"/><line style="stroke:#444444;stroke-width:1;" x1="203.7314" x2="203.7314" y1="1300.7129" y2="1320.7129"/><polygon fill="#444444" points="199.7314,1310.7129,203.7314,1320.7129,207.7314,1310.7129,203.7314,1314.7129" style="stroke:#444444;stroke-width:1;"/><line style="stroke:#444444;stroke-width:1;" x1="572.8809" x2="572.8809" y1="319.0801" y2="339.0801"/><polygon fill="#444444" points="568.8809,329.0801,572.8809,339.0801,576.8809,329.0801,572.8809,333.0801" style="stroke:#444444;stroke-width:1;"/><line style="stroke:#444444;stroke-width:1;" x1="1242.655" x2="1242.655" y1="498.3223" y2="518.3223"/><polygon fill="#444444" points="1238.655,508.3223,1242.655,518.3223,1246.655,508.3223,1242.655,512.3223" style="stroke:#444444;stroke-width:1;"/><line style="stroke:#444444;stroke-width:1;" x1="1380.908" x2="1392.908" y1="1034.3301" y2="1034.3301"/><polygon fill="#444444" points="1388.908,1206.5215,1392.908,1216.5215,1396.908,1206.5215,1392.908,1210.5215" style="stroke:#444444;stroke-width:1;"/><line style="stroke:#444444;stroke-width:1;" x1="1392.908" x2="1392.908" y1="1034.3301" y2="1364.7129"/><line style="stroke:#444444;stroke-width:1;" x1="1392.908" x2="1242.655" y1="1364.7129" y2="1364.7129"/><line style="stroke:#444444;stroke-width:1;" x1="1242.655" x2="1242.655" y1="1364.7129" y2="1384.7129"/><polygon fill="#444444" points="1238.655,1374.7129,1242.655,1384.7129,1246.655,1374.7129,1242.655,1378.7129" style="stroke:#444444;stroke-width:1;"/><line style="stroke:#444444;stroke-width:1;" x1="1242.655" x2="1242.655" y1="858.1348" y2="878.1348"/><polygon fill="#444444" points="1238.655,868.1348,1242.655,878.1348,1246.655,868.1348,1242.655,872.1348" style="stroke:#444444;stroke-width:1;"/><line style="stroke:#444444;stroke-width:1;" x1="1397.6899" x2="1409.6899" y1="715.7754" y2="715.7754"/><polygon fill="#444444" points="1405.6899,1067.2441,1409.6899,1077.2441,1413.6899,1067.2441,1409.6899,1071.2441" style="stroke:#444444;stroke-width:1;"/><line style="stroke:#444444;stroke-width:1;" x1="1409.6899" x2="1409.6899" y1="715.7754" y2="1396.7129"/><line style="stroke:#444444;stroke-width:1;" x1="1409.6899" x2="1254.655" y1="1396.7129" y2="1396.7129"/><polygon fill="#444444" points="1264.655,1392.7129,1254.655,1396.7129,1264.655,1400.7129,1260.655,1396.7129" style="stroke:#444444;stroke-width:1;"/><line style="stroke:#444444;stroke-width:1;" x1="1242.655" x2="1242.655" y1="553.416" y2="573.416"/><polygon fill="#444444" points="1238.655,563.416,1242.655,573.416,1246.655,563.416,1242.655,567.416" style="stroke:#444444;stroke-width:1;"/><line style="stroke:#444444;stroke-width:1;" x1="64.6768" x2="64.6768" y1="153.7988" y2="158.7988"/><line style="stroke:#444444;stroke-width:1;" x1="64.6768" x2="203.7314" y1="158.7988" y2="158.7988"/><line style="stroke:#444444;stroke-width:1;" x1="203.7314" x2="203.7314" y1="158.7988" y2="173.7988"/><polygon fill="#444444" points="199.7314,163.7988,203.7314,173.7988,207.7314,163.7988,203.7314,167.7988" style="stroke:#444444;stroke-width:1;"/><line style="stroke:#444444;stroke-width:1;" x1="203.7314" x2="203.7314" y1="208.8926" y2="213.8926"/><line style="stroke:#444444;stroke-width:1;" x1="203.7314" x2="381.1357" y1="213.8926" y2="213.8926"/><line style="stroke:#444444;stroke-width:1;" x1="381.1357" x2="381.1357" y1="213.8926" y2="228.8926"/><polygon fill="#444444" points="377.1357,218.8926,381.1357,228.8926,385.1357,218.8926,381.1357,222.8926" style="stroke:#444444;stroke-width:1;"/><line style="stroke:#444444;stroke-width:1;" x1="381.1357" x2="381.1357" y1="263.9863" y2="268.9863"/><line style="stroke:#444444;stroke-width:1;" x1="381.1357" x2="572.8809" y1="268.9863" y2="268.9863"/><line style="stroke:#444444;stroke-width:1;" x1="572.8809" x2="572.8809" y1="268.9863" y2="283.9863"/><polygon fill="#444444" points="568.8809,273.9863,572.8809,283.9863,576.8809,273.9863,572.8809,277.9863" style="stroke:#444444;stroke-width:1;"/><line style="stroke:#444444;stroke-width:1;" x1="572.8809" x2="572.8809" y1="374.1738" y2="379.1738"/><line style="stroke:#444444;stroke-width:1;" x1="572.8809" x2="747.3027" y1="379.1738" y2="379.1738"/><line style="stroke:#444444;stroke-width:1;" x1="747.3027" x2="747.3027" y1="379.1738" y2="396.1543"/><polygon fill="#444444" points="743.3027,386.1543,747.3027,396.1543,751.3027,386.1543,747.3027,390.1543" style="stroke:#444444;stroke-width:1;"/><line style="stroke:#444444;stroke-width:1;" x1="747.3027" x2="747.3027" y1="431.248" y2="448.2285"/><line style="stroke:#444444;stroke-width:1;" x1="747.3027" x2="1242.655" y1="448.2285" y2="448.2285"/><line style="stroke:#444444;stroke-width:1;" x1="1242.655" x2="1242.655" y1="448.2285" y2="463.2285"/><polygon fill="#444444" points="1238.655,453.2285,1242.655,463.2285,1246.655,453.2285,1242.655,457.2285" style="stroke:#444444;stroke-width:1;"/><line style="stroke:#444444;stroke-width:1;" x1="572.8809" x2="572.8809" y1="1245.6191" y2="1250.6191"/><line style="stroke:#444444;stroke-width:1;" x1="572.8809" x2="203.7314" y1="1250.6191" y2="1250.6191"/><line style="stroke:#444444;stroke-width:1;" x1="203.7314" x2="203.7314" y1="1250.6191" y2="1265.6191"/><polygon fill="#444444" points="199.7314,1255.6191,203.7314,1265.6191,207.7314,1255.6191,203.7314,1259.6191" style="stroke:#444444;stroke-width:1;"/><line style="stroke:#444444;stroke-width:1;" x1="1242.655" x2="1242.655" y1="1190.5254" y2="1198.5254"/><line style="stroke:#444444;stroke-width:1;" x1="1242.655" x2="572.8809" y1="1198.5254" y2="1198.5254"/><line style="stroke:#444444;stroke-width:1;" x1="572.8809" x2="572.8809" y1="1198.5254" y2="1210.5254"/><polygon fill="#444444" points="568.8809,1200.5254,572.8809,1210.5254,576.8809,1200.5254,572.8809,1204.5254" style="stroke:#444444;stroke-width:1;"/><text fill="#000000" font-family="sans-serif" font-size="18" lengthAdjust="spacing" textLength="38.0039" x="44.6748" y="69.75">User</text><text fill="#000000" font-family="sans-serif" font-size="18" lengthAdjust="spacing" textLength="32.001" x="186.731" y="69.75">GUI</text><text fill="#000000" font-family="sans-serif" font-size="18" lengthAdjust="spacing" textLength="88.0576" x="336.1069" y="69.75">Application</text><text fill="#000000" font-family="sans-serif" font-size="18" lengthAdjust="spacing" textLength="43.0313" x="550.3652" y="69.75">Logic</text><text fill="#000000" font-family="sans-serif" font-size="18" lengthAdjust="spacing" textLength="63.0439" x="843.0879" y="69.75">Storage</text><text fill="#000000" font-family="sans-serif" font-size="18" lengthAdjust="spacing" textLength="60.0205" x="1220.6448" y="69.75">Service</text><!--SRC=[dLHBRXin3DtFATYT0pG-W0EaSBuewXI5xQ2B80W43MqJraYgg74oXHSzH4_OavJIZ3z9x2xgZINgySrx4iaFPBMfIuGdZet1FjMLAI95Wp3KaLOK6_ZpwpVSeiMW8i9auK8qnB4erlUCOLrmL24MWqj3UWaJL44lpehrxVtdTJ6ugCcKNN2CFshaA6T3xmMi8ZahcDkQMi04mueqzZdlUYU27BavQS6qWBphrxuK8Ty2pZ2WrSW9-GenxyHkjMQkINH1pL7OHawLaE9avmp2fXX5btNYBz1y4Gk0o-2OJxipM2b3PHOCeROCJhuBAk6o-ze3MIQvnZrhDqhB5vkF8Bm2z1WWj5VGBz2MAOoYgZMTLBM2RiX43FrP_hjencYp_2F7GmhQsGIW6VH66qy1AqLMbfzE82xGmeDrZo9YPt4WyU2U6RwwCN9j8b-_QFH9U7RbV8664HuQvCUabsRRvmZeKSplj0CCBbrLrH6lHK2bn7SVsnNsJc152gP1hT1CgS8nUiUKhkPC4fFiwA8oTsGbd-4SAlNIiNMnhOci1UGtk2BMAcnVCJ6rSbkV7MzGbgLAEjBfPlkUxp3ZMywMzLcPvIknttU1Gyp7kD-pj_puaZioiLwvYgooSUoEamjzFXvQPPgVKXh4-wcfD7RGn9zEeUoEZt4U5trOUCxuWkWFmdFr_2lvIEf-ucwzMHqgIdXUaCoktfqBk6rnCKdSMJmzX_pnjc6wqWUiV6pUtiL_D4jorSbwrzXZPPVoFDfLNfvheaMXzCRC1K2b5x0KljqDl4cIobtsMARPdIjnVp1EPHpfD9UZawPFqaPKKTmEO1aVPHeyYQRi40nUMJHdHHB-5m00]--></g></svg>